<svg width="16" height="21" viewBox="0 0 16 21" fill="none" xmlns="http://www.w3.org/2000/svg">
<path d="M0.992188 3.99219V20C0.992188 20.1719 1.03125 20.3281 1.10938 20.4688C1.20312 20.625 1.32812 20.75 1.48438 20.8438C1.625 20.9375 1.78125 20.9844 1.95312 20.9844C2.125 21 2.28906 20.9688 2.44531 20.8906L7.55469 18.3359C7.69531 18.2734 7.84375 18.2422 8 18.2422C8.15625 18.2422 8.30469 18.2734 8.44531 18.3359C8.44531 18.3359 8.71094 18.4688 9.24219 18.7344C9.77344 19 10.3594 19.2891 11 19.6016C11.6406 19.9297 12.2266 20.2266 12.7578 20.4922C13.2891 20.7578 13.5547 20.8906 13.5547 20.8906C13.7109 20.9688 13.875 21 14.0469 20.9844C14.2188 20.9844 14.375 20.9375 14.5156 20.8438C14.6719 20.75 14.7891 20.625 14.8672 20.4688C14.9609 20.3281 15.0078 20.1719 15.0078 20C15.0078 20 15.0078 19.3828 15.0078 18.1484C15.0078 16.9297 15.0078 15.4688 15.0078 13.7656C15.0078 12.0469 15.0078 10.2812 15.0078 8.46875C15.0078 6.65625 15.0078 5.16406 15.0078 3.99219C15.0078 3.16406 14.7109 2.46094 14.1172 1.88281C13.5391 1.28906 12.8359 0.992188 12.0078 0.992188H3.99219C3.16406 0.992188 2.45312 1.28906 1.85938 1.88281C1.28125 2.46094 0.992188 3.16406 0.992188 3.99219ZM3.00781 3.99219C3.00781 3.72656 3.10156 3.5 3.28906 3.3125C3.49219 3.10938 3.72656 3.00781 3.99219 3.00781C3.99219 3.00781 4.41406 3.00781 5.25781 3.00781C6.08594 3.00781 7 3.00781 8 3.00781C9 3.00781 9.91406 3.00781 10.7422 3.00781C11.5859 3.00781 12.0078 3.00781 12.0078 3.00781C12.2734 3.00781 12.5 3.10938 12.6875 3.3125C12.8906 3.5 12.9922 3.72656 12.9922 3.99219V18.3828L9.33594 16.5547C8.91406 16.3359 8.46875 16.2266 8 16.2266C7.53125 16.2266 7.08594 16.3359 6.66406 16.5547L3.00781 18.3828V3.99219Z" fill="#5E656E"/>
</svg>
