<svg width="22" height="22" viewBox="0 0 22 22" fill="none" xmlns="http://www.w3.org/2000/svg">
<path d="M11 2.79688C10.75 2.625 10.5156 2.45312 10.2969 2.28125C10.0781 2.10938 9.85938 1.95312 9.64062 1.8125C9.28125 1.5625 8.89062 1.36719 8.46875 1.22656C8.0625 1.07031 7.57031 0.992188 6.99219 0.992188C6.08594 0.992188 5.25781 1.14844 4.50781 1.46094C3.77344 1.77344 3.14844 2.23438 2.63281 2.84375C2.11719 3.42188 1.71094 4.14062 1.41406 5C1.13281 5.84375 0.992188 6.84375 0.992188 8C0.992188 9.1875 1.22656 10.3438 1.69531 11.4688C2.14844 12.5938 2.71875 13.6562 3.40625 14.6562C4.10938 15.6406 4.875 16.5391 5.70312 17.3516C6.51562 18.1641 7.28125 18.8438 8 19.3906C8.45312 19.7344 8.85938 20.0234 9.21875 20.2578C9.59375 20.4922 9.90625 20.6641 10.1562 20.7734C10.3438 20.8672 10.5078 20.9297 10.6484 20.9609C10.7891 20.9922 10.9062 21.0078 11 21.0078C11.0938 21.0078 11.2109 20.9922 11.3516 20.9609C11.4922 20.9297 11.6562 20.8672 11.8438 20.7734C12.0938 20.6641 12.3984 20.4922 12.7578 20.2578C13.1328 20.0234 13.5469 19.7344 14 19.3906C14.7188 18.8438 15.4844 18.1641 16.2969 17.3516C17.125 16.5391 17.8828 15.6406 18.5703 14.6562C19.2734 13.6562 19.8516 12.5938 20.3047 11.4688C20.7734 10.3438 21.0078 9.1875 21.0078 8C21.0078 6.84375 20.8594 5.84375 20.5625 5C20.2812 4.14062 19.8828 3.42188 19.3672 2.84375C18.8516 2.23438 18.2188 1.77344 17.4688 1.46094C16.7344 1.14844 15.9141 0.992188 15.0078 0.992188C14.4297 0.992188 13.9297 1.07031 13.5078 1.22656C13.1016 1.36719 12.7188 1.5625 12.3594 1.8125C12.1406 1.95312 11.9219 2.10938 11.7031 2.28125C11.4844 2.45312 11.25 2.625 11 2.79688ZM11 18.9453C10.8438 18.8672 10.5938 18.7188 10.25 18.5C9.90625 18.2969 9.5625 18.0625 9.21875 17.7969C8.59375 17.3281 7.92188 16.7422 7.20312 16.0391C6.46875 15.3359 5.78906 14.5625 5.16406 13.7188C4.55469 12.875 4.03906 11.9688 3.61719 11C3.21094 10.0312 3.00781 9.03125 3.00781 8C3.00781 7.15625 3.10156 6.41406 3.28906 5.77344C3.47656 5.11719 3.75781 4.57812 4.13281 4.15625C4.47656 3.76562 4.89062 3.47656 5.375 3.28906C5.85938 3.10156 6.39844 3.00781 6.99219 3.00781C7.41406 3.00781 7.76562 3.07812 8.04688 3.21875C8.32812 3.34375 8.60156 3.5 8.86719 3.6875C9.10156 3.85938 9.34375 4.04688 9.59375 4.25C9.85938 4.45312 10.1484 4.65625 10.4609 4.85938C10.6328 4.95312 10.8125 5 11 5C11.1875 5 11.3672 4.95312 11.5391 4.85938C11.8516 4.65625 12.1328 4.45312 12.3828 4.25C12.6484 4.04688 12.8984 3.85938 13.1328 3.6875C13.3984 3.5 13.6719 3.34375 13.9531 3.21875C14.2344 3.07812 14.5859 3.00781 15.0078 3.00781C15.6016 3.00781 16.1406 3.10156 16.625 3.28906C17.1094 3.47656 17.5234 3.76562 17.8672 4.15625C18.2422 4.57812 18.5234 5.11719 18.7109 5.77344C18.8984 6.41406 18.9922 7.15625 18.9922 8C18.9922 9.03125 18.7891 10.0312 18.3828 11C17.9609 11.9688 17.4375 12.875 16.8125 13.7188C16.2031 14.5625 15.5312 15.3359 14.7969 16.0391C14.0781 16.7422 13.4062 17.3281 12.7812 17.7969C12.4375 18.0625 12.0938 18.2969 11.75 18.5C11.4062 18.7188 11.1562 18.8672 11 18.9453Z" fill="#5E656E"/>
</svg>
