<svg width="22" height="16" viewBox="0 0 22 16" fill="none" xmlns="http://www.w3.org/2000/svg">
<path d="M20.7031 7.22656C20.6406 7.13281 20.5703 7.02344 20.4922 6.89844C20.4141 6.77344 20.3203 6.63281 20.2109 6.47656C20.0078 6.17969 19.75 5.84375 19.4375 5.46875C19.125 5.07812 18.7578 4.67969 18.3359 4.27344C17.9297 3.88281 17.4766 3.49219 16.9766 3.10156C16.4609 2.71094 15.8906 2.35938 15.2656 2.04688C14.6562 1.73438 13.9922 1.48438 13.2734 1.29688C12.5703 1.09375 11.8125 0.992188 11 0.992188C10.1875 0.992188 9.42969 1.09375 8.72656 1.29688C8.00781 1.48438 7.33594 1.73438 6.71094 2.04688C6.10156 2.35938 5.53906 2.71094 5.02344 3.10156C4.52344 3.49219 4.07031 3.88281 3.66406 4.27344C3.24219 4.67969 2.875 5.07812 2.5625 5.46875C2.25 5.84375 1.99219 6.17969 1.78906 6.47656C1.67969 6.63281 1.58594 6.77344 1.50781 6.89844C1.42969 7.02344 1.35938 7.13281 1.29688 7.22656C1.26562 7.27344 1.24219 7.3125 1.22656 7.34375C1.21094 7.375 1.19531 7.40625 1.17969 7.4375L1.13281 7.53125C1.03906 7.67188 0.992188 7.82812 0.992188 8C0.992188 8.17188 1.03906 8.32812 1.13281 8.46875L1.17969 8.5625C1.19531 8.59375 1.21094 8.625 1.22656 8.65625C1.24219 8.6875 1.26562 8.72656 1.29688 8.77344C1.35938 8.86719 1.42969 8.97656 1.50781 9.10156C1.58594 9.22656 1.67969 9.36719 1.78906 9.52344C1.99219 9.82031 2.25 10.1641 2.5625 10.5547C2.875 10.9297 3.24219 11.3203 3.66406 11.7266C4.07031 12.1172 4.52344 12.5078 5.02344 12.8984C5.53906 13.2891 6.10156 13.6406 6.71094 13.9531C7.33594 14.2656 8.00781 14.5156 8.72656 14.7031C9.42969 14.9062 10.1875 15.0078 11 15.0078C11.8125 15.0078 12.5703 14.9062 13.2734 14.7031C13.9922 14.5156 14.6562 14.2656 15.2656 13.9531C15.8906 13.6406 16.4609 13.2891 16.9766 12.8984C17.4766 12.5078 17.9297 12.1172 18.3359 11.7266C18.7578 11.3203 19.125 10.9297 19.4375 10.5547C19.75 10.1641 20.0078 9.82031 20.2109 9.52344C20.3203 9.36719 20.4141 9.22656 20.4922 9.10156C20.5703 8.97656 20.6406 8.86719 20.7031 8.77344C20.7344 8.72656 20.7578 8.6875 20.7734 8.65625C20.7891 8.625 20.8047 8.59375 20.8203 8.5625L20.8672 8.46875C20.9609 8.32812 21.0078 8.17188 21.0078 8C21.0078 7.82812 20.9609 7.67188 20.8672 7.53125L20.8203 7.4375C20.8047 7.40625 20.7891 7.375 20.7734 7.34375C20.7578 7.3125 20.7344 7.27344 20.7031 7.22656ZM3.42969 8.35156C3.38281 8.28906 3.33594 8.22656 3.28906 8.16406C3.24219 8.10156 3.20312 8.04688 3.17188 8C3.20312 7.95312 3.24219 7.89844 3.28906 7.83594C3.33594 7.77344 3.38281 7.71094 3.42969 7.64844C3.60156 7.38281 3.82031 7.08594 4.08594 6.75781C4.36719 6.41406 4.6875 6.07031 5.04688 5.72656C5.76562 5.00781 6.625 4.375 7.625 3.82812C8.625 3.28125 9.75 3.00781 11 3.00781C12.25 3.00781 13.375 3.28125 14.375 3.82812C15.375 4.375 16.2344 5.00781 16.9531 5.72656C17.3125 6.07031 17.625 6.41406 17.8906 6.75781C18.1719 7.08594 18.3984 7.38281 18.5703 7.64844C18.6172 7.71094 18.6641 7.77344 18.7109 7.83594C18.7578 7.89844 18.7969 7.95312 18.8281 8C18.7969 8.04688 18.7578 8.10156 18.7109 8.16406C18.6641 8.22656 18.6172 8.28906 18.5703 8.35156C18.3984 8.61719 18.1719 8.92188 17.8906 9.26562C17.625 9.59375 17.3125 9.92969 16.9531 10.2734C16.2344 10.9922 15.375 11.625 14.375 12.1719C13.375 12.7188 12.25 12.9922 11 12.9922C9.75 12.9922 8.625 12.7188 7.625 12.1719C6.625 11.625 5.76562 10.9922 5.04688 10.2734C4.6875 9.92969 4.36719 9.59375 4.08594 9.26562C3.82031 8.92188 3.60156 8.61719 3.42969 8.35156ZM9.99219 8C9.99219 7.71875 10.0859 7.48438 10.2734 7.29688C10.4766 7.09375 10.7188 6.99219 11 6.99219C11.2812 6.99219 11.5156 7.09375 11.7031 7.29688C11.9062 7.48438 12.0078 7.71875 12.0078 8C12.0078 8.28125 11.9062 8.52344 11.7031 8.72656C11.5156 8.91406 11.2812 9.00781 11 9.00781C10.7188 9.00781 10.4766 8.91406 10.2734 8.72656C10.0859 8.52344 9.99219 8.28125 9.99219 8ZM11 5C10.1719 5 9.46094 5.29688 8.86719 5.89062C8.28906 6.46875 8 7.17188 8 8C8 8.82812 8.28906 9.53906 8.86719 10.1328C9.46094 10.7109 10.1719 11 11 11C11.8281 11 12.5312 10.7109 13.1094 10.1328C13.7031 9.53906 14 8.82812 14 8C14 7.17188 13.7031 6.46875 13.1094 5.89062C12.5312 5.29688 11.8281 5 11 5Z" fill="#0D0D0D"/>
</svg>
