<svg width="22" height="22" viewBox="0 0 22 22" fill="none" xmlns="http://www.w3.org/2000/svg">
<path d="M0.992188 3.99219V20C0.992188 20.1875 1.03906 20.3516 1.13281 20.4922C1.22656 20.6484 1.35156 20.7734 1.50781 20.8672C1.66406 20.9609 1.82812 21.0078 2 21.0078C2.1875 21.0078 2.35938 20.9609 2.51562 20.8672L7.27344 18.0078C7.27344 18.0078 7.83594 18.0078 8.96094 18.0078C10.0703 18.0078 11.2969 18.0078 12.6406 18.0078C13.9844 18.0078 15.2109 18.0078 16.3203 18.0078C17.4453 18.0078 18.0078 18.0078 18.0078 18.0078C18.8359 18.0078 19.5391 17.7109 20.1172 17.1172C20.7109 16.5391 21.0078 15.8359 21.0078 15.0078C21.0078 14.2891 21.0078 13.4453 21.0078 12.4766C21.0078 11.5078 21.0078 10.5156 21.0078 9.5C21.0078 8.48438 21.0078 7.49219 21.0078 6.52344C21.0078 5.55469 21.0078 4.71094 21.0078 3.99219C21.0078 3.60156 20.9297 3.22656 20.7734 2.86719C20.6172 2.49219 20.3984 2.16406 20.1172 1.88281C19.8359 1.60156 19.5078 1.38281 19.1328 1.22656C18.7734 1.07031 18.3984 0.992188 18.0078 0.992188C17.1328 0.992188 16.0781 0.992188 14.8438 0.992188C13.5938 0.992188 12.3125 0.992188 11 0.992188C9.6875 0.992188 8.40625 0.992188 7.15625 0.992188C5.92188 0.992188 4.86719 0.992188 3.99219 0.992188C3.16406 0.992188 2.45312 1.28906 1.85938 1.88281C1.28125 2.46094 0.992188 3.16406 0.992188 3.99219ZM3.00781 3.99219C3.00781 3.72656 3.10156 3.5 3.28906 3.3125C3.49219 3.10938 3.72656 3.00781 3.99219 3.00781H18.0078C18.1328 3.00781 18.2578 3.03125 18.3828 3.07812C18.5078 3.125 18.6172 3.19531 18.7109 3.28906C18.8047 3.38281 18.875 3.49219 18.9219 3.61719C18.9688 3.74219 18.9922 3.86719 18.9922 3.99219C18.9922 3.99219 18.9922 4.57031 18.9922 5.72656C18.9922 6.86719 18.9922 8.125 18.9922 9.5C18.9922 10.875 18.9922 12.1328 18.9922 13.2734C18.9922 14.4297 18.9922 15.0078 18.9922 15.0078C18.9922 15.2734 18.8906 15.5078 18.6875 15.7109C18.5 15.8984 18.2734 15.9922 18.0078 15.9922C17.0859 15.9922 16 15.9922 14.75 15.9922C13.4844 15.9922 12.2734 15.9922 11.1172 15.9922C9.97656 15.9922 9.00781 15.9922 8.21094 15.9922C7.39844 15.9922 6.99219 15.9922 6.99219 15.9922C6.91406 15.9922 6.82812 16.0078 6.73438 16.0391C6.64062 16.0547 6.55469 16.0859 6.47656 16.1328L3.00781 18.2422V3.99219Z" fill="#5E656E"/>
</svg>
